:FULLY-SPECIFIED
:FORCE-ALL-JOINTS-BE-3DOF
:DEGREES
49
root 8.69152 16.1739 -29.6131 5.91395 -9.22316 -0.615996
lfemur -31.6563 7.67732 -21.7907
ltibia 36.1831 -0 0
lfoot -10.9509 7.53503 -0.00703591
ltoes -5.44536 0 0
rfemur -2.68126 0.550412 18.592
rtibia 46.59 -0 0
rfoot 7.9333 -7.57158 -0.141999
rtoes -1.12633 0 0
lowerback -4.97332 0.503866 -1.49875
upperback -2.15263 0.70725 2.5846
thorax 0.515721 0.372603 3.54158
lowerneck -21.6158 -4.35679 -12.0798
upperneck 16.7525 -5.2009 13.7611
head 9.57226 -1.71468 6.12126
lclavicle 3.32516e-15 1.02716e-14 -4.00749e-32
lhumerus -39.6451 -4.02812 88.0098
lradius 21.9783 -0 0
lwrist -1.61447 0 0
lhand -0.417541 -18.4046 0.140611
lfingers 7.12502 -0 0
lthumb 25.177 9.80965 0.0948775
rclavicle 3.32516e-15 1.02716e-14 -4.00749e-32
rhumerus -42.3712 14.7279 -89.9243
rradius 41.8954 -0 0
rwrist -21.3252 0 0
rhand -30.3268 -25.767 -0.000106398
rfingers 7.12502 -0 0
rthumb -3.63288 -55.7108 -0.000501296
50
root 8.71705 16.1777 -29.4648 5.8826 -9.44196 -0.549241
lfemur -31.4692 7.71244 -21.9018
ltibia 36.0221 -0 0
lfoot -10.8745 7.51812 -0.00662995
ltoes -5.31196 0 0
rfemur -2.52263 0.479248 18.3469
rtibia 47.0581 -0 0
rfoot 8.09852 -7.72926 -0.1338
rtoes -1.1498 0 0
lowerback -4.98751 0.510111 -1.54958
upperback -2.16584 0.71813 2.58512
thorax 0.508933 0.378452 3.57145
lowerneck -21.6772 -4.33907 -12.0541
upperneck 16.8156 -5.16933 13.6961
head 9.59677 -1.70263 6.09954
lclavicle 3.26243e-15 1.01543e-14 -3.77629e-32
lhumerus -39.7229 -4.04877 88.0471
lradius 21.8652 -0 0
lwrist -1.8003 0 0
lhand -0.149185 -18.3085 0.132489
lfingers 7.12502 -0 0
lthumb 25.4347 9.87716 0.089398
rclavicle 3.26243e-15 1.01543e-14 -3.77629e-32
rhumerus -42.4426 14.6674 -90.0429
rradius 41.5974 -0 0
rwrist -21.1743 0 0
rhand -30.2669 -25.7673 -0.00010026
rfingers 7.12502 -0 0
rthumb -3.57505 -55.7124 -0.000472373
51
root 8.74259 16.1814 -29.3164 5.85098 -9.66072 -0.482322
lfemur -31.2822 7.74791 -22.0128
ltibia 35.8611 -0 0
lfoot -10.7981 7.50121 -0.00620145
ltoes -5.17855 0 0
rfemur -2.36371 0.408763 18.1017
rtibia 47.5263 -0 0
rfoot 8.26372 -7.88692 -0.125147
rtoes -1.17326 0 0
lowerback -5.0017 0.516344 -1.60042
upperback -2.17904 0.729009 2.58563
thorax 0.502148 0.384305 3.60132
lowerneck -21.7386 -4.32133 -12.0283
upperneck 16.8787 -5.13769 13.6312
head 9.62128 -1.69058 6.07781
lclavicle 3.1997e-15 1.0037e-14 -3.53224e-32
lhumerus -39.8008 -4.06936 88.0844
lradius 21.7522 -0 0
lwrist -1.98613 0 0
lhand 0.119157 -18.2125 0.123917
lfingers 7.12502 -0 0
lthumb 25.6925 9.94464 0.0836148
rclavicle 3.1997e-15 1.0037e-14 -3.53224e-32
rhumerus -42.5139 14.6068 -90.1613
rradius 41.2994 -0 0
rwrist -21.0234 0 0
rhand -30.207 -25.7676 -9.37801e-05
rfingers 7.12502 -0 0
rthumb -3.51722 -55.714 -0.000441844
52
root 8.76812 16.1852 -29.1681 5.81907 -9.87945 -0.415236
lfemur -31.0952 7.78375 -22.1237
ltibia 35.7001 -0 0
lfoot -10.7217 7.48431 -0.0057504
ltoes -5.04515 0 0
rfemur -2.20448 0.338959 17.8563
rtibia 47.9944 -0 0
rfoot 8.42889 -8.04455 -0.116039
rtoes -1.19673 0 0
lowerback -5.0159 0.522564 -1.65126
upperback -2.19224 0.739889 2.58614
thorax 0.495367 0.390161 3.63119
lowerneck -21.8 -4.30357 -12.0026
upperneck 16.9417 -5.10597 13.5663
head 9.64579 -1.67851 6.0561
lclavicle 3.13697e-15 9.91969e-15 -3.27535e-32
lhumerus -39.8786 -4.08991 88.1218
lradius 21.6391 -0 0
lwrist -2.17197 0 0
lhand 0.387485 -18.1165 0.114896
lfingers 7.12502 -0 0
lthumb 25.9502 10.0121 0.0775282
rclavicle 3.13697e-15 9.91969e-15 -3.27535e-32
rhumerus -42.5851 14.546 -90.2796
rradius 41.0014 -0 0
rwrist -20.8724 0 0
rhand -30.1471 -25.7679 -8.69594e-05
rfingers 7.12502 -0 0
rthumb -3.4594 -55.7156 -0.000409709
53
root 8.79365 16.1889 -29.0198 5.78688 -10.0981 -0.347981
lfemur -30.9083 7.81994 -22.2345
ltibia 35.5391 -0 0
lfoot -10.6452 7.4674 -0.0052768
ltoes -4.91175 0 0
rfemur -2.04496 0.269838 17.6107
rtibia 48.4625 -0 0
rfoot 8.59404 -8.20215 -0.106477
rtoes -1.22019 0 0
lowerback -5.0301 0.528771 -1.70209
upperback -2.20544 0.750769 2.58664
thorax 0.488588 0.396021 3.66105
lowerneck -21.8613 -4.28577 -11.977
upperneck 17.0046 -5.07419 13.5015
head 9.67029 -1.66644 6.03439
lclavicle 3.07424e-15 9.80237e-15 -3.00561e-32
lhumerus -39.9565 -4.11041 88.1592
lradius 21.526 -0 0
lwrist -2.3578 0 0
lhand 0.655797 -18.0205 0.105424
lfingers 7.12502 -0 0
lthumb 26.208 10.0795 0.0711381
rclavicle 3.07424e-15 9.80237e-15 -3.00561e-32
rhumerus -42.6561 14.4851 -90.3978
rradius 40.7034 -0 0
rwrist -20.7215 0 0
rhand -30.0872 -25.7683 -7.97977e-05
rfingers 7.12502 -0 0
rthumb -3.40157 -55.7172 -0.000375967
54
root 8.81919 16.1927 -28.8715 5.7544 -10.3168 -0.280556
lfemur -30.7215 7.85649 -22.3452
ltibia 35.3781 -0 0
lfoot -10.5688 7.4505 -0.00478066
ltoes -4.77834 0 0
rfemur -1.88515 0.201401 17.3649
rtibia 48.9307 -0 0
rfoot 8.75916 -8.35973 -0.0964609
rtoes -1.24366 0 0
lowerback -5.04431 0.534966 -1.75294
upperback -2.21864 0.761649 2.58714
thorax 0.481812 0.401884 3.69092
lowerneck -21.9227 -4.26795 -11.9513
upperneck 17.0675 -5.04233 13.4366
head 9.69479 -1.65435 6.01269
lclavicle 3.01151e-15 9.68506e-15 -2.72304e-32
lhumerus -40.0345 -4.13085 88.1966
lradius 21.413 -0 0
lwrist -2.54364 0 0
lhand 0.924092 -17.9246 0.0955041
lfingers 7.12502 -0 0
lthumb 26.4657 10.1469 0.0644448
rclavicle 3.01151e-15 9.68506e-15 -2.72304e-32
rhumerus -42.7269 14.4241 -90.5159
rradius 40.4054 -0 0
rwrist -20.5706 0 0
rhand -30.0273 -25.7686 -7.22951e-05
rfingers 7.12502 -0 0
rthumb -3.34374 -55.7188 -0.000340618
55
root 8.84472 16.1964 -28.7232 5.72164 -10.5354 -0.212956
lfemur -30.5347 7.8934 -22.4558
ltibia 35.2171 -0 0
lfoot -10.4924 7.43359 -0.00426197
ltoes -4.64494 0 0
rfemur -1.72504 0.133652 17.1189
rtibia 49.3988 -0 0
rfoot 8.92425 -8.51728 -0.0859906
rtoes -1.26712 0 0
lowerback -5.05852 0.541148 -1.80378
upperback -2.23184 0.772529 2.58765
thorax 0.475039 0.407751 3.72079
lowerneck -21.984 -4.2501 -11.9257
upperneck 17.1304 -5.0104 13.3719
head 9.71928 -1.64226 5.99099
lclavicle 2.94878e-15 9.56774e-15 -2.42761e-32
lhumerus -40.1124 -4.15124 88.234
lradius 21.2999 -0 0
lwrist -2.72947 0 0
lhand 1.19237 -17.8287 0.0851347
lfingers 7.12502 -0 0
lthumb 26.7234 10.2143 0.0574484
rclavicle 2.94878e-15 9.56774e-15 -2.42761e-32
rhumerus -42.7976 14.3629 -90.6339
rradius 40.1074 -0 0
rwrist -20.4197 0 0
rhand -29.9674 -25.7689 -6.44515e-05
rfingers 7.12502 -0 0
rthumb -3.28591 -55.7204 -0.000303663
